<?xml version="1.0" encoding="UTF-8"?>
<!DOCTYPE svg PUBLIC "-//W3C//DTD SVG 1.1//EN" "http://www.w3.org/Graphics/SVG/1.1/DTD/svg11.dtd">
<!-- Creator: CorelDRAW 2018 (64-Bit Not for commercial use) -->
<svg xmlns="http://www.w3.org/2000/svg" xml:space="preserve" width="2.60417in" height="2.60417in" version="1.1" style="shape-rendering:geometricPrecision; text-rendering:geometricPrecision; image-rendering:optimizeQuality; fill-rule:evenodd; clip-rule:evenodd"
viewBox="0 0 2604.17 2604.17"
 xmlns:xlink="http://www.w3.org/1999/xlink">
 <defs>
  <style type="text/css">
   <![CDATA[
    .fil0 {fill:#F16529;fill-rule:nonzero}
   ]]>
  </style>
 </defs>
 <g id="Layer_x0020_1">
  <metadata id="CorelCorpID_0Corel-Layer"/>
  <polygon class="fil0" points="2575.7,1360.42 1872.36,1777.08 1872.36,1527.08 2250.7,1300.42 1872.36,1063.75 1872.36,827.08 2575.7,1252.08 "/>
  <path class="fil0" d="M1325.42 1122.08c55.56,0 107.22,9.17 155,27.5 47.78,18.33 88.89,44.17 123.33,77.5 34.44,33.33 61.39,73.33 80.83,120 19.44,46.67 29.17,98.33 29.17,155 0,60 -10.83,114.44 -32.5,163.33 -21.67,48.89 -51.94,90.83 -90.83,125.83 -38.89,35 -85,62.22 -138.33,81.67 -53.33,19.44 -111.11,29.17 -173.33,29.17 -86.67,0 -164.17,-18.33 -232.5,-55 -68.33,-36.67 -120.28,-86.67 -155.83,-150l128.33 -133.33c31.11,43.33 70,77.78 116.67,103.33 46.67,25.56 95,38.33 145,38.33 60,0 109.17,-18.06 147.5,-54.17 38.33,-36.11 57.5,-84.17 57.5,-144.17 0,-57.78 -18.06,-104.44 -54.17,-140 -36.11,-35.56 -81.94,-53.33 -137.5,-53.33 -36.67,0 -70.83,8.33 -102.5,25 -31.67,16.67 -56.94,39.44 -75.83,68.33l-195 0c0,-3.33 2.22,-15.83 6.67,-37.5 4.44,-21.67 10,-49.44 16.67,-83.33 6.67,-33.89 13.89,-71.67 21.67,-113.33 7.78,-41.67 16.11,-84.17 25,-127.5 20,-102.22 42.22,-216.67 66.67,-343.33l583.33 0 0 203.33 -421.67 0 -48.33 265c13.33,-14.44 33.06,-26.11 59.17,-35 26.11,-8.89 58.06,-13.33 95.83,-13.33z"/>
  <polygon class="fil0" points="42.37,1252.08 745.7,827.08 745.7,1063.75 367.37,1300.42 745.7,1527.08 745.7,1777.08 42.37,1360.42 "/>
 </g>
</svg>
